# Blender v3.0.0 OBJ File: 'game_sozai.blend'
# www.blender.org
mtllib circle_002.mtl
o 円.001
v 0.000000 -0.192483 -1.000000
v 0.000000 -0.192483 1.000000
v 0.195090 -0.192483 0.980785
v 0.382683 -0.192483 0.923880
v 0.555570 -0.192483 0.831470
v 0.707107 -0.192483 0.707107
v 0.831469 -0.192483 0.555570
v 0.923880 -0.192483 0.382684
v 0.980785 -0.192483 0.195090
v 1.000000 -0.192483 -0.000000
v 0.980785 -0.192483 -0.195090
v 0.923879 -0.192483 -0.382684
v 0.831470 -0.192483 -0.555570
v 0.707107 -0.192483 -0.707107
v 0.555570 -0.192483 -0.831470
v 0.382683 -0.192483 -0.923880
v 0.195090 -0.192483 -0.980785
v -0.000000 -0.192483 -0.833140
v 0.000000 -0.192483 0.833140
v 0.162538 -0.192483 0.817132
v 0.318829 -0.192483 0.769721
v 0.462868 -0.192483 0.692731
v 0.589119 -0.192483 0.589119
v 0.692731 -0.192483 0.462868
v 0.769721 -0.192483 0.318829
v 0.817132 -0.192483 0.162538
v 0.833140 -0.192483 -0.000000
v 0.817132 -0.192483 -0.162538
v 0.769721 -0.192483 -0.318829
v 0.692731 -0.192483 -0.462868
v 0.589119 -0.192483 -0.589119
v 0.462868 -0.192483 -0.692731
v 0.318829 -0.192483 -0.769721
v 0.162538 -0.192483 -0.817132
v 0.000000 -0.034752 -1.000000
v 0.000000 -0.034752 1.000000
v 0.195090 -0.034752 0.980785
v 0.382683 -0.034752 0.923880
v 0.555570 -0.034752 0.831470
v 0.707107 -0.034752 0.707107
v 0.831469 -0.034752 0.555570
v 0.923880 -0.034752 0.382684
v 0.980785 -0.034752 0.195090
v 1.000000 -0.034752 -0.000000
v 0.980785 -0.034752 -0.195090
v 0.923879 -0.034752 -0.382684
v 0.831470 -0.034752 -0.555570
v 0.707107 -0.034752 -0.707107
v 0.555570 -0.034752 -0.831470
v 0.382683 -0.034752 -0.923880
v 0.195090 -0.034752 -0.980785
v -0.000000 -0.034752 -0.833140
v 0.000000 -0.034752 0.833140
v 0.162538 -0.034752 0.817132
v 0.318829 -0.034752 0.769721
v 0.462868 -0.034752 0.692731
v 0.589119 -0.034752 0.589119
v 0.692731 -0.034752 0.462868
v 0.769721 -0.034752 0.318829
v 0.817132 -0.034752 0.162538
v 0.833140 -0.034752 -0.000000
v 0.817132 -0.034752 -0.162538
v 0.769721 -0.034752 -0.318829
v 0.692731 -0.034752 -0.462868
v 0.589119 -0.034752 -0.589119
v 0.462868 -0.034752 -0.692731
v 0.318829 -0.034752 -0.769721
v 0.162538 -0.034752 -0.817132
vt 0.000000 0.000000
vt 0.000000 0.000000
vt 0.000000 0.000000
vt 0.000000 0.000000
vt 0.000000 0.000000
vt 0.000000 0.000000
vt 0.000000 0.000000
vt 0.000000 0.000000
vt 0.000000 0.000000
vt 0.000000 0.000000
vt 0.000000 0.000000
vt 0.000000 0.000000
vt 0.000000 0.000000
vt 0.000000 0.000000
vt 0.000000 0.000000
vt 0.000000 0.000000
vt 0.000000 0.000000
vt 0.000000 0.000000
vt 0.000000 0.000000
vt 0.000000 0.000000
vt 0.000000 0.000000
vt 0.000000 0.000000
vt 0.000000 0.000000
vt 0.000000 0.000000
vt 0.000000 0.000000
vt 0.000000 0.000000
vt 0.000000 0.000000
vt 0.000000 0.000000
vt 0.000000 0.000000
vt 0.000000 0.000000
vt 0.000000 0.000000
vt 0.000000 0.000000
vt 0.000000 0.000000
vt 0.000000 0.000000
vt 0.000000 0.000000
vt 0.000000 0.000000
vt 0.000000 0.000000
vt 0.000000 0.000000
vt 0.000000 0.000000
vt 0.000000 0.000000
vt 0.000000 0.000000
vt 0.000000 0.000000
vt 0.000000 0.000000
vt 0.000000 0.000000
vt 0.000000 0.000000
vt 0.000000 0.000000
vt 0.000000 0.000000
vt 0.000000 0.000000
vt 0.000000 0.000000
vt 0.000000 0.000000
vt 0.000000 0.000000
vt 0.000000 0.000000
vt 0.000000 0.000000
vt 0.000000 0.000000
vt 0.000000 0.000000
vt 0.000000 0.000000
vt 0.000000 0.000000
vt 0.000000 0.000000
vt 0.000000 0.000000
vt 0.000000 0.000000
vt 0.000000 0.000000
vt 0.000000 0.000000
vt 0.000000 0.000000
vt 0.000000 0.000000
vt 0.000000 0.000000
vt 0.000000 0.000000
vt 0.000000 0.000000
vt 0.000000 0.000000
vn 0.0000 -1.0000 -0.0000
vn 0.0000 1.0000 -0.0000
vn -1.0000 0.0000 -0.0000
vn 0.6344 0.0000 0.7730
vn 0.7730 0.0000 0.6344
vn 0.8819 0.0000 0.4714
vn -0.0980 0.0000 -0.9952
vn 0.9569 0.0000 0.2903
vn -0.2903 0.0000 -0.9569
vn 0.9952 0.0000 0.0980
vn -0.4714 0.0000 -0.8819
vn 0.9952 0.0000 -0.0980
vn -0.6344 0.0000 -0.7730
vn 0.9569 0.0000 -0.2903
vn -0.7730 0.0000 -0.6344
vn 0.8819 0.0000 -0.4714
vn -0.8819 0.0000 -0.4714
vn 0.7730 0.0000 -0.6344
vn -0.9569 0.0000 -0.2903
vn 0.6344 0.0000 -0.7730
vn -0.9952 0.0000 -0.0980
vn 0.4714 0.0000 -0.8819
vn -0.9952 0.0000 0.0980
vn 0.2903 0.0000 -0.9569
vn -0.9569 0.0000 0.2903
vn 0.0980 0.0000 -0.9952
vn -0.8819 0.0000 0.4714
vn -0.7730 0.0000 0.6344
vn -0.6344 0.0000 0.7730
vn -0.4714 0.0000 0.8819
vn -0.2903 0.0000 0.9569
vn -0.0980 0.0000 0.9952
vn 0.0980 0.0000 0.9952
vn 0.2903 0.0000 0.9569
vn 0.4714 0.0000 0.8819
usemtl マテリアル
s off
f 7/1/1 25/2/1 8/3/1
f 8/3/1 26/4/1 9/5/1
f 9/5/1 27/6/1 10/7/1
f 10/7/1 28/8/1 11/9/1
f 11/9/1 29/10/1 12/11/1
f 12/11/1 30/12/1 13/13/1
f 13/13/1 31/14/1 14/15/1
f 14/15/1 32/16/1 15/17/1
f 15/17/1 33/18/1 16/19/1
f 2/20/1 20/21/1 3/22/1
f 17/23/1 33/18/1 34/24/1
f 4/25/1 20/21/1 21/26/1
f 17/23/1 18/27/1 1/28/1
f 4/25/1 22/29/1 5/30/1
f 5/30/1 23/31/1 6/32/1
f 6/32/1 24/33/1 7/1/1
f 59/34/2 41/35/2 42/36/2
f 60/37/2 42/36/2 43/38/2
f 61/39/2 43/38/2 44/40/2
f 62/41/2 44/40/2 45/42/2
f 46/43/2 62/41/2 45/42/2
f 64/44/2 46/43/2 47/45/2
f 48/46/2 64/44/2 47/45/2
f 52/47/3 1/28/3 18/27/3
f 66/48/2 48/46/2 49/49/2
f 36/50/3 19/51/3 2/20/3
f 67/52/2 49/49/2 50/53/2
f 37/54/2 53/55/2 36/50/2
f 51/56/2 67/52/2 50/53/2
f 38/57/2 54/58/2 37/54/2
f 52/47/2 51/56/2 35/59/2
f 56/60/2 38/57/2 39/61/2
f 57/62/2 39/61/2 40/63/2
f 58/64/2 40/63/2 41/35/2
f 40/63/4 5/30/4 6/32/4
f 41/35/5 6/32/5 7/1/5
f 42/36/6 7/1/6 8/3/6
f 53/55/7 20/21/7 19/51/7
f 43/38/8 8/3/8 9/5/8
f 54/58/9 21/26/9 20/21/9
f 44/40/10 9/5/10 10/7/10
f 55/65/11 22/29/11 21/26/11
f 45/42/12 10/7/12 11/9/12
f 56/60/13 23/31/13 22/29/13
f 46/43/14 11/9/14 12/11/14
f 57/62/15 24/33/15 23/31/15
f 47/45/16 12/11/16 13/13/16
f 58/64/17 25/2/17 24/33/17
f 48/46/18 13/13/18 14/15/18
f 59/34/19 26/4/19 25/2/19
f 49/49/20 14/15/20 15/17/20
f 60/37/21 27/6/21 26/4/21
f 50/53/22 15/17/22 16/19/22
f 61/39/23 28/8/23 27/6/23
f 51/56/24 16/19/24 17/23/24
f 62/41/25 29/10/25 28/8/25
f 35/59/26 17/23/26 1/28/26
f 63/66/27 30/12/27 29/10/27
f 64/44/28 31/14/28 30/12/28
f 65/67/29 32/16/29 31/14/29
f 66/48/30 33/18/30 32/16/30
f 67/52/31 34/24/31 33/18/31
f 68/68/32 18/27/32 34/24/32
f 37/54/33 2/20/33 3/22/33
f 38/57/34 3/22/34 4/25/34
f 39/61/35 4/25/35 5/30/35
f 7/1/1 24/33/1 25/2/1
f 8/3/1 25/2/1 26/4/1
f 9/5/1 26/4/1 27/6/1
f 10/7/1 27/6/1 28/8/1
f 11/9/1 28/8/1 29/10/1
f 12/11/1 29/10/1 30/12/1
f 13/13/1 30/12/1 31/14/1
f 14/15/1 31/14/1 32/16/1
f 15/17/1 32/16/1 33/18/1
f 2/20/1 19/51/1 20/21/1
f 17/23/1 16/19/1 33/18/1
f 4/25/1 3/22/1 20/21/1
f 17/23/1 34/24/1 18/27/1
f 4/25/1 21/26/1 22/29/1
f 5/30/1 22/29/1 23/31/1
f 6/32/1 23/31/1 24/33/1
f 59/34/2 58/64/2 41/35/2
f 60/37/2 59/34/2 42/36/2
f 61/39/2 60/37/2 43/38/2
f 62/41/2 61/39/2 44/40/2
f 46/43/2 63/66/2 62/41/2
f 64/44/2 63/66/2 46/43/2
f 48/46/2 65/67/2 64/44/2
f 52/47/3 35/59/3 1/28/3
f 66/48/2 65/67/2 48/46/2
f 36/50/3 53/55/3 19/51/3
f 67/52/2 66/48/2 49/49/2
f 37/54/2 54/58/2 53/55/2
f 51/56/2 68/68/2 67/52/2
f 38/57/2 55/65/2 54/58/2
f 52/47/2 68/68/2 51/56/2
f 56/60/2 55/65/2 38/57/2
f 57/62/2 56/60/2 39/61/2
f 58/64/2 57/62/2 40/63/2
f 40/63/4 39/61/4 5/30/4
f 41/35/5 40/63/5 6/32/5
f 42/36/6 41/35/6 7/1/6
f 53/55/7 54/58/7 20/21/7
f 43/38/8 42/36/8 8/3/8
f 54/58/9 55/65/9 21/26/9
f 44/40/10 43/38/10 9/5/10
f 55/65/11 56/60/11 22/29/11
f 45/42/12 44/40/12 10/7/12
f 56/60/13 57/62/13 23/31/13
f 46/43/14 45/42/14 11/9/14
f 57/62/15 58/64/15 24/33/15
f 47/45/16 46/43/16 12/11/16
f 58/64/17 59/34/17 25/2/17
f 48/46/18 47/45/18 13/13/18
f 59/34/19 60/37/19 26/4/19
f 49/49/20 48/46/20 14/15/20
f 60/37/21 61/39/21 27/6/21
f 50/53/22 49/49/22 15/17/22
f 61/39/23 62/41/23 28/8/23
f 51/56/24 50/53/24 16/19/24
f 62/41/25 63/66/25 29/10/25
f 35/59/26 51/56/26 17/23/26
f 63/66/27 64/44/27 30/12/27
f 64/44/28 65/67/28 31/14/28
f 65/67/29 66/48/29 32/16/29
f 66/48/30 67/52/30 33/18/30
f 67/52/31 68/68/31 34/24/31
f 68/68/32 52/47/32 18/27/32
f 37/54/33 36/50/33 2/20/33
f 38/57/34 37/54/34 3/22/34
f 39/61/35 38/57/35 4/25/35
