# Blender v3.0.0 OBJ File: ''
# www.blender.org
mtllib circle.mtl
o 円_円.001
v 0.000000 0.008555 -1.000000
v 0.000000 0.000000 -0.991404
v -0.193413 0.000000 -0.972354
v -0.195090 0.008555 -0.980785
v -0.379394 0.000000 -0.915938
v -0.382683 0.008555 -0.923880
v -0.550795 0.000000 -0.824322
v -0.555570 0.008555 -0.831470
v -0.701028 0.000000 -0.701028
v -0.707107 0.008555 -0.707107
v -0.824322 0.000000 -0.550795
v -0.831470 0.008555 -0.555570
v -0.915938 0.000000 -0.379394
v -0.923880 0.008555 -0.382683
v -0.972354 0.000000 -0.193413
v -0.980785 0.008555 -0.195090
v -0.991404 0.000000 0.000000
v -1.000000 0.008555 0.000000
v -0.972354 0.000000 0.193413
v -0.980785 0.008555 0.195090
v -0.915938 0.000000 0.379394
v -0.923880 0.008555 0.382683
v -0.824322 0.000000 0.550794
v -0.831470 0.008555 0.555570
v -0.701028 0.000000 0.701028
v -0.707107 0.008555 0.707107
v -0.550794 0.000000 0.824322
v -0.555570 0.008555 0.831470
v -0.379394 0.000000 0.915938
v -0.382683 0.008555 0.923880
v -0.193413 0.000000 0.972354
v -0.195090 0.008555 0.980785
v 0.000000 0.000000 0.991404
v 0.000000 0.008555 1.000000
v 0.193413 0.000000 0.972354
v 0.195090 0.008555 0.980785
v 0.379394 0.000000 0.915938
v 0.382683 0.008555 0.923880
v 0.550795 0.000000 0.824322
v 0.555570 0.008555 0.831470
v 0.701028 0.000000 0.701028
v 0.707107 0.008555 0.707107
v 0.824322 0.000000 0.550795
v 0.831469 0.008555 0.555570
v 0.915938 0.000000 0.379394
v 0.923880 0.008555 0.382684
v 0.972354 0.000000 0.193413
v 0.980785 0.008555 0.195090
v 0.991404 0.000000 -0.000000
v 1.000000 0.008555 -0.000000
v 0.972354 0.000000 -0.193413
v 0.980785 0.008555 -0.195090
v 0.915938 0.000000 -0.379394
v 0.923879 0.008555 -0.382684
v 0.824322 0.000000 -0.550794
v 0.831470 0.008555 -0.555570
v 0.701028 0.000000 -0.701028
v 0.707107 0.008555 -0.707107
v 0.550795 0.000000 -0.824322
v 0.555570 0.008555 -0.831470
v 0.379394 0.000000 -0.915938
v 0.382683 0.008555 -0.923880
v 0.193413 0.000000 -0.972354
v 0.195090 0.008555 -0.980785
v -0.195090 0.030829 -0.980785
v -0.193413 0.039384 -0.972354
v 0.000000 0.039384 -0.991404
v 0.000000 0.030829 -1.000000
v -0.382683 0.030829 -0.923880
v -0.379394 0.039384 -0.915938
v -0.555570 0.030829 -0.831470
v -0.550795 0.039384 -0.824322
v -0.707107 0.030829 -0.707107
v -0.701028 0.039384 -0.701028
v -0.831470 0.030829 -0.555570
v -0.824322 0.039384 -0.550795
v -0.923880 0.030829 -0.382683
v -0.915938 0.039384 -0.379394
v -0.980785 0.030829 -0.195090
v -0.972354 0.039384 -0.193413
v -1.000000 0.030829 0.000000
v -0.991404 0.039384 0.000000
v -0.980785 0.030829 0.195090
v -0.972354 0.039384 0.193413
v -0.923880 0.030829 0.382683
v -0.915938 0.039384 0.379394
v -0.831470 0.030829 0.555570
v -0.824322 0.039384 0.550794
v -0.707107 0.030829 0.707107
v -0.701028 0.039384 0.701028
v -0.555570 0.030829 0.831470
v -0.550794 0.039384 0.824322
v -0.382683 0.030829 0.923880
v -0.379394 0.039384 0.915938
v -0.195090 0.030829 0.980785
v -0.193413 0.039384 0.972354
v 0.000000 0.030829 1.000000
v 0.000000 0.039384 0.991404
v 0.195090 0.030829 0.980785
v 0.193413 0.039384 0.972354
v 0.382683 0.030829 0.923880
v 0.379394 0.039384 0.915938
v 0.555570 0.030829 0.831470
v 0.550795 0.039384 0.824322
v 0.707107 0.030829 0.707107
v 0.701028 0.039384 0.701028
v 0.831469 0.030829 0.555570
v 0.824322 0.039384 0.550795
v 0.923880 0.030829 0.382684
v 0.915938 0.039384 0.379394
v 0.980785 0.030829 0.195090
v 0.972354 0.039384 0.193413
v 1.000000 0.030829 -0.000000
v 0.991404 0.039384 -0.000000
v 0.980785 0.030829 -0.195090
v 0.972354 0.039384 -0.193413
v 0.923879 0.030829 -0.382684
v 0.915938 0.039384 -0.379394
v 0.831470 0.030829 -0.555570
v 0.824322 0.039384 -0.550794
v 0.707107 0.030829 -0.707107
v 0.701028 0.039384 -0.701028
v 0.555570 0.030829 -0.831470
v 0.550795 0.039384 -0.824322
v 0.382683 0.030829 -0.923880
v 0.379394 0.039384 -0.915938
v 0.195090 0.030829 -0.980785
v 0.193413 0.039384 -0.972354
vt 0.540271 0.228744
vt 0.540259 0.228653
vt 0.540271 0.228653
vt 0.540205 0.228899
vt 0.540193 0.228822
vt 0.540205 0.228822
vt 0.540249 0.228629
vt 0.540237 0.228522
vt 0.540249 0.228522
vt 0.540227 0.228113
vt 0.540215 0.228036
vt 0.540227 0.228036
vt 0.540249 0.228731
vt 0.540237 0.228629
vt 0.540227 0.228204
vt 0.540215 0.228113
vt 0.540249 0.228822
vt 0.540237 0.228731
vt 0.540227 0.228305
vt 0.540215 0.228204
vt 0.540271 0.228127
vt 0.540259 0.228036
vt 0.540271 0.228036
vt 0.540227 0.228413
vt 0.540215 0.228305
vt 0.540271 0.228228
vt 0.540259 0.228127
vt 0.540227 0.228522
vt 0.540215 0.228413
vt 0.540271 0.228335
vt 0.540259 0.228228
vt 0.540227 0.228629
vt 0.540215 0.228522
vt 0.114963 0.184008
vt 0.815991 0.114963
vt 0.885037 0.815992
vt 0.540271 0.228445
vt 0.540259 0.228335
vt 0.540227 0.228731
vt 0.540215 0.228629
vt 0.540205 0.228305
vt 0.540193 0.228204
vt 0.540205 0.228204
vt 0.540271 0.228552
vt 0.540259 0.228445
vt 0.540227 0.228822
vt 0.540215 0.228731
vt 0.540205 0.228413
vt 0.540193 0.228305
vt 0.540259 0.228552
vt 0.540249 0.228113
vt 0.540237 0.228036
vt 0.540249 0.228036
vt 0.540205 0.228522
vt 0.540193 0.228413
vt 0.939285 0.734803
vt 0.265197 0.939285
vt 0.060715 0.265197
vt 0.540249 0.228204
vt 0.540237 0.228113
vt 0.540205 0.228629
vt 0.540193 0.228522
vt 0.540193 0.228113
vt 0.540205 0.228113
vt 0.540249 0.228305
vt 0.540237 0.228204
vt 0.540205 0.228731
vt 0.540193 0.228629
vt 0.540249 0.228413
vt 0.540237 0.228305
vt 0.540193 0.228731
vt 0.540237 0.228413
vt 0.263161 0.056906
vt 0.184008 0.114963
vt 0.181269 0.111625
vt 0.111625 0.181269
vt 0.056906 0.263161
vt 0.060715 0.265197
vt 0.019215 0.354155
vt 0.023348 0.355409
vt 0.004298 0.451178
vt 0.000000 0.450754
vt 0.004298 0.548823
vt 0.000000 0.549246
vt 0.019215 0.645845
vt 0.023348 0.644591
vt 0.056906 0.736839
vt 0.060715 0.734803
vt 0.114963 0.815992
vt 0.111625 0.818731
vt 0.184008 0.885037
vt 0.181269 0.888375
vt 0.263161 0.943094
vt 0.265197 0.939285
vt 0.354155 0.980785
vt 0.355409 0.976653
vt 0.451178 0.995702
vt 0.450754 1.000000
vt 0.548823 0.995702
vt 0.549246 1.000000
vt 0.645845 0.980785
vt 0.644591 0.976652
vt 0.734803 0.939285
vt 0.736839 0.943094
vt 0.815992 0.885037
vt 0.818731 0.888375
vt 0.888376 0.818731
vt 0.943094 0.736839
vt 0.939285 0.734803
vt 0.980785 0.645845
vt 0.976652 0.644591
vt 0.995702 0.548823
vt 1.000000 0.549246
vt 0.995702 0.451178
vt 1.000000 0.450754
vt 0.980785 0.354155
vt 0.976652 0.355409
vt 0.943094 0.263161
vt 0.939285 0.265197
vt 0.885037 0.184008
vt 0.888375 0.181269
vt 0.818731 0.111625
vt 0.736839 0.056906
vt 0.734803 0.060715
vt 0.645845 0.019215
vt 0.644591 0.023348
vt 0.548822 0.004298
vt 0.549246 0.000000
vt 0.451178 0.004298
vt 0.450754 0.000000
vt 0.354155 0.019215
vt 0.355409 0.023348
vt 0.265197 0.060715
vt 0.111625 0.181268
vt 0.114963 0.184008
vt 0.184009 0.114963
vt 0.181269 0.111624
vt 0.263161 0.056906
vt 0.265197 0.060714
vt 0.354156 0.019215
vt 0.355409 0.023347
vt 0.451178 0.004298
vt 0.450755 0.000000
vt 0.548823 0.004298
vt 0.549246 0.000000
vt 0.645845 0.019215
vt 0.644591 0.023348
vt 0.736839 0.056906
vt 0.734803 0.060715
vt 0.815992 0.114963
vt 0.818732 0.111625
vt 0.885037 0.184009
vt 0.888375 0.181269
vt 0.943094 0.263161
vt 0.939285 0.265197
vt 0.980785 0.354156
vt 0.976652 0.355409
vt 0.995702 0.451178
vt 1.000000 0.450755
vt 0.995702 0.548823
vt 1.000000 0.549246
vt 0.980785 0.645845
vt 0.976652 0.644591
vt 0.943094 0.736839
vt 0.885037 0.815992
vt 0.888375 0.818732
vt 0.815991 0.885037
vt 0.818731 0.888376
vt 0.736838 0.943094
vt 0.734802 0.939285
vt 0.645844 0.980785
vt 0.644590 0.976652
vt 0.548822 0.995702
vt 0.549245 1.000000
vt 0.451177 0.995702
vt 0.450754 1.000000
vt 0.354155 0.980785
vt 0.355409 0.976652
vt 0.263161 0.943094
vt 0.184008 0.885036
vt 0.181268 0.888375
vt 0.114963 0.815991
vt 0.111624 0.818731
vt 0.056906 0.736839
vt 0.060714 0.734803
vt 0.019215 0.645844
vt 0.023348 0.644591
vt 0.004298 0.548822
vt 0.000000 0.549245
vt 0.004298 0.451177
vt 0.000000 0.450754
vt 0.019215 0.354155
vt 0.023348 0.355409
vt 0.056906 0.263161
vt 0.540193 0.228036
vt 0.540205 0.228036
vt 0.540259 0.228744
vt 0.540193 0.228899
vt 0.540237 0.228822
vt 0.540215 0.228822
vn 0.0980 0.0000 -0.9952
vn -0.9952 0.0000 0.0980
vn 0.9569 0.0000 0.2903
vn -0.9569 0.0000 0.2903
vn 0.9952 0.0000 0.0980
vn -0.8819 0.0000 0.4714
vn 0.9952 0.0000 -0.0980
vn -0.7730 0.0000 0.6344
vn 0.9569 0.0000 -0.2903
vn -0.6344 0.0000 0.7730
vn 0.8819 0.0000 -0.4714
vn -0.4714 0.0000 0.8819
vn 0.7730 0.0000 -0.6344
vn -0.2903 0.0000 0.9569
vn 0.0000 -1.0000 0.0000
vn 0.6344 0.0000 -0.7730
vn -0.0980 0.0000 0.9952
vn -0.4714 0.0000 -0.8819
vn 0.4714 0.0000 -0.8819
vn 0.0980 0.0000 0.9952
vn -0.6344 0.0000 -0.7730
vn 0.2903 0.0000 -0.9569
vn 0.2903 0.0000 0.9569
vn -0.7730 0.0000 -0.6344
vn 0.0000 1.0000 0.0000
vn 0.4714 0.0000 0.8819
vn -0.8819 0.0000 -0.4714
vn -0.2903 0.0000 -0.9569
vn 0.6344 0.0000 0.7730
vn -0.9569 0.0000 -0.2903
vn 0.7730 0.0000 0.6344
vn -0.9952 0.0000 -0.0980
vn 0.8819 0.0000 0.4714
vn -0.0693 -0.7071 -0.7037
vn -0.2053 -0.7071 -0.6767
vn -0.3333 -0.7071 -0.6236
vn -0.4486 -0.7071 -0.5466
vn -0.5466 -0.7071 -0.4486
vn -0.6236 -0.7071 -0.3333
vn -0.6767 -0.7071 -0.2053
vn -0.7037 -0.7071 -0.0693
vn -0.7037 -0.7071 0.0693
vn -0.6767 -0.7071 0.2053
vn -0.6236 -0.7071 0.3333
vn -0.5466 -0.7071 0.4486
vn -0.4486 -0.7071 0.5466
vn -0.3333 -0.7071 0.6236
vn -0.2053 -0.7071 0.6767
vn -0.0693 -0.7071 0.7037
vn 0.0693 -0.7071 0.7037
vn 0.2053 -0.7071 0.6767
vn 0.3333 -0.7071 0.6236
vn 0.4486 -0.7071 0.5466
vn 0.5466 -0.7071 0.4486
vn 0.6236 -0.7071 0.3333
vn 0.6767 -0.7071 0.2053
vn 0.7037 -0.7071 0.0693
vn 0.7037 -0.7071 -0.0693
vn 0.6767 -0.7071 -0.2053
vn 0.6236 -0.7071 -0.3333
vn 0.5466 -0.7071 -0.4486
vn 0.4486 -0.7071 -0.5466
vn 0.3333 -0.7071 -0.6236
vn 0.2053 -0.7071 -0.6767
vn 0.0693 -0.7071 -0.7037
vn -0.0693 0.7071 -0.7037
vn -0.2053 0.7071 -0.6767
vn -0.3333 0.7071 -0.6236
vn -0.4486 0.7071 -0.5466
vn -0.5466 0.7071 -0.4486
vn -0.6236 0.7071 -0.3333
vn -0.6767 0.7071 -0.2053
vn -0.7037 0.7071 -0.0693
vn -0.7037 0.7071 0.0693
vn -0.6767 0.7071 0.2053
vn -0.6236 0.7071 0.3333
vn -0.5466 0.7071 0.4486
vn -0.4486 0.7071 0.5466
vn -0.3333 0.7071 0.6236
vn -0.2053 0.7071 0.6767
vn -0.0693 0.7071 0.7037
vn 0.0693 0.7071 0.7037
vn 0.2053 0.7071 0.6767
vn 0.3333 0.7071 0.6236
vn 0.4486 0.7071 0.5466
vn 0.5466 0.7071 0.4486
vn 0.6236 0.7071 0.3333
vn 0.6767 0.7071 0.2053
vn 0.7037 0.7071 0.0693
vn 0.7037 0.7071 -0.0693
vn 0.6767 0.7071 -0.2053
vn 0.6236 0.7071 -0.3333
vn 0.5466 0.7071 -0.4486
vn 0.4486 0.7071 -0.5466
vn 0.3333 0.7071 -0.6236
vn 0.2053 0.7071 -0.6767
vn 0.0693 0.7071 -0.7037
vn -0.0980 0.0000 -0.9952
usemtl マテリアル
s off
f 1/1/1 127/2/1 64/3/1
f 20/4/2 81/5/2 18/6/2
f 48/7/3 109/8/3 46/9/3
f 22/10/4 83/11/4 20/12/4
f 50/13/5 111/14/5 48/7/5
f 24/15/6 85/16/6 22/10/6
f 52/17/7 113/18/7 50/13/7
f 26/19/8 87/20/8 24/15/8
f 54/21/9 115/22/9 52/23/9
f 28/24/10 89/25/10 26/19/10
f 56/26/11 117/27/11 54/21/11
f 30/28/12 91/29/12 28/24/12
f 58/30/13 119/31/13 56/26/13
f 32/32/14 93/33/14 30/28/14
f 5/34/15 53/35/15 37/36/15
f 60/37/16 121/38/16 58/30/16
f 34/39/17 95/40/17 32/32/17
f 8/41/18 69/42/18 6/43/18
f 62/44/19 123/45/19 60/37/19
f 36/46/20 97/47/20 34/39/20
f 10/48/21 71/49/21 8/41/21
f 64/3/22 125/50/22 62/44/22
f 38/51/23 99/52/23 36/53/23
f 12/54/24 73/55/24 10/48/24
f 98/56/25 114/57/25 67/58/25
f 40/59/26 101/60/26 38/51/26
f 14/61/27 75/62/27 12/54/27
f 6/43/28 65/63/28 4/64/28
f 42/65/29 103/66/29 40/59/29
f 16/67/30 77/68/30 14/61/30
f 44/69/31 105/70/31 42/65/31
f 18/6/32 79/71/32 16/67/32
f 46/9/33 107/72/33 44/69/33
f 1/73/34 3/74/34 4/75/34
f 4/75/35 5/34/35 6/76/35
f 8/77/36 5/34/36 7/78/36
f 10/79/37 7/78/37 9/80/37
f 10/79/38 11/81/38 12/82/38
f 12/82/39 13/83/39 14/84/39
f 16/85/40 13/83/40 15/86/40
f 18/87/41 15/86/41 17/88/41
f 18/87/42 19/89/42 20/90/42
f 20/90/43 21/91/43 22/92/43
f 24/93/44 21/91/44 23/94/44
f 26/95/45 23/94/45 25/96/45
f 26/95/46 27/97/46 28/98/46
f 28/98/47 29/99/47 30/100/47
f 32/101/48 29/99/48 31/102/48
f 32/101/49 33/103/49 34/104/49
f 34/104/50 35/105/50 36/106/50
f 36/106/51 37/36/51 38/107/51
f 40/108/52 37/36/52 39/109/52
f 42/110/53 39/109/53 41/111/53
f 42/110/54 43/112/54 44/113/54
f 44/113/55 45/114/55 46/115/55
f 48/116/56 45/114/56 47/117/56
f 50/118/57 47/117/57 49/119/57
f 50/118/58 51/120/58 52/121/58
f 52/121/59 53/35/59 54/122/59
f 56/123/60 53/35/60 55/124/60
f 58/125/61 55/124/61 57/126/61
f 58/125/62 59/127/62 60/128/62
f 60/128/63 61/129/63 62/130/63
f 64/131/64 61/129/64 63/132/64
f 1/73/65 63/132/65 2/133/65
f 67/58/66 65/134/66 66/135/66
f 70/136/67 65/134/67 69/137/67
f 70/136/68 71/138/68 72/139/68
f 72/139/69 73/140/69 74/141/69
f 76/142/70 73/140/70 75/143/70
f 78/144/71 75/143/71 77/145/71
f 78/144/72 79/146/72 80/147/72
f 80/147/73 81/148/73 82/149/73
f 84/150/74 81/148/74 83/151/74
f 86/152/75 83/151/75 85/153/75
f 86/152/76 87/154/76 88/155/76
f 88/155/77 89/156/77 90/157/77
f 92/158/78 89/156/78 91/159/78
f 94/160/79 91/159/79 93/161/79
f 94/160/80 95/162/80 96/163/80
f 96/163/81 97/164/81 98/56/81
f 100/165/82 97/164/82 99/166/82
f 102/167/83 99/166/83 101/168/83
f 102/167/84 103/169/84 104/170/84
f 104/170/85 105/171/85 106/172/85
f 108/173/86 105/171/86 107/174/86
f 110/175/87 107/174/87 109/176/87
f 110/175/88 111/177/88 112/178/88
f 112/178/89 113/179/89 114/57/89
f 116/180/90 113/179/90 115/181/90
f 118/182/91 115/181/91 117/183/91
f 118/182/92 119/184/92 120/185/92
f 120/185/93 121/186/93 122/187/93
f 124/188/94 121/186/94 123/189/94
f 126/190/95 123/189/95 125/191/95
f 126/190/96 127/192/96 128/193/96
f 128/193/97 68/194/97 67/58/97
f 4/64/98 68/195/98 1/196/98
f 1/1/1 68/197/1 127/2/1
f 20/4/2 83/198/2 81/5/2
f 48/7/3 111/14/3 109/8/3
f 22/10/4 85/16/4 83/11/4
f 50/13/5 113/18/5 111/14/5
f 24/15/6 87/20/6 85/16/6
f 52/17/7 115/199/7 113/18/7
f 26/19/8 89/25/8 87/20/8
f 54/21/9 117/27/9 115/22/9
f 28/24/10 91/29/10 89/25/10
f 56/26/11 119/31/11 117/27/11
f 30/28/12 93/33/12 91/29/12
f 58/30/13 121/38/13 119/31/13
f 32/32/14 95/40/14 93/33/14
f 5/34/15 3/74/15 2/133/15
f 2/133/15 63/132/15 61/129/15
f 61/129/15 59/127/15 57/126/15
f 57/126/15 55/124/15 61/129/15
f 55/124/15 53/35/15 61/129/15
f 53/35/15 51/120/15 49/119/15
f 49/119/15 47/117/15 45/114/15
f 45/114/15 43/112/15 37/36/15
f 43/112/15 41/111/15 37/36/15
f 41/111/15 39/109/15 37/36/15
f 37/36/15 35/105/15 33/103/15
f 33/103/15 31/102/15 29/99/15
f 29/99/15 27/97/15 21/91/15
f 27/97/15 25/96/15 21/91/15
f 25/96/15 23/94/15 21/91/15
f 21/91/15 19/89/15 17/88/15
f 17/88/15 15/86/15 13/83/15
f 13/83/15 11/81/15 9/80/15
f 9/80/15 7/78/15 13/83/15
f 7/78/15 5/34/15 13/83/15
f 5/34/15 2/133/15 61/129/15
f 53/35/15 49/119/15 45/114/15
f 37/36/15 33/103/15 21/91/15
f 33/103/15 29/99/15 21/91/15
f 21/91/15 17/88/15 13/83/15
f 5/34/15 61/129/15 53/35/15
f 53/35/15 45/114/15 37/36/15
f 21/91/15 13/83/15 37/36/15
f 13/83/15 5/34/15 37/36/15
f 60/37/16 123/45/16 121/38/16
f 34/39/17 97/47/17 95/40/17
f 8/41/18 71/49/18 69/42/18
f 62/44/19 125/50/19 123/45/19
f 36/46/20 99/200/20 97/47/20
f 10/48/21 73/55/21 71/49/21
f 64/3/22 127/2/22 125/50/22
f 38/51/23 101/60/23 99/52/23
f 12/54/24 75/62/24 73/55/24
f 67/58/25 66/135/25 70/136/25
f 70/136/25 72/139/25 67/58/25
f 72/139/25 74/141/25 67/58/25
f 74/141/25 76/142/25 82/149/25
f 76/142/25 78/144/25 82/149/25
f 78/144/25 80/147/25 82/149/25
f 82/149/25 84/150/25 86/152/25
f 86/152/25 88/155/25 90/157/25
f 90/157/25 92/158/25 98/56/25
f 92/158/25 94/160/25 98/56/25
f 94/160/25 96/163/25 98/56/25
f 98/56/25 100/165/25 102/167/25
f 102/167/25 104/170/25 98/56/25
f 104/170/25 106/172/25 98/56/25
f 106/172/25 108/173/25 114/57/25
f 108/173/25 110/175/25 114/57/25
f 110/175/25 112/178/25 114/57/25
f 114/57/25 116/180/25 118/182/25
f 118/182/25 120/185/25 122/187/25
f 122/187/25 124/188/25 67/58/25
f 124/188/25 126/190/25 67/58/25
f 126/190/25 128/193/25 67/58/25
f 82/149/25 86/152/25 98/56/25
f 86/152/25 90/157/25 98/56/25
f 114/57/25 118/182/25 67/58/25
f 118/182/25 122/187/25 67/58/25
f 67/58/25 74/141/25 82/149/25
f 98/56/25 106/172/25 114/57/25
f 67/58/25 82/149/25 98/56/25
f 40/59/26 103/66/26 101/60/26
f 14/61/27 77/68/27 75/62/27
f 6/43/28 69/42/28 65/63/28
f 42/65/29 105/70/29 103/66/29
f 16/67/30 79/71/30 77/68/30
f 44/69/31 107/72/31 105/70/31
f 18/6/32 81/5/32 79/71/32
f 46/9/33 109/8/33 107/72/33
f 1/73/34 2/133/34 3/74/34
f 4/75/35 3/74/35 5/34/35
f 8/77/36 6/76/36 5/34/36
f 10/79/37 8/77/37 7/78/37
f 10/79/38 9/80/38 11/81/38
f 12/82/39 11/81/39 13/83/39
f 16/85/40 14/84/40 13/83/40
f 18/87/41 16/85/41 15/86/41
f 18/87/42 17/88/42 19/89/42
f 20/90/43 19/89/43 21/91/43
f 24/93/44 22/92/44 21/91/44
f 26/95/45 24/93/45 23/94/45
f 26/95/46 25/96/46 27/97/46
f 28/98/47 27/97/47 29/99/47
f 32/101/48 30/100/48 29/99/48
f 32/101/49 31/102/49 33/103/49
f 34/104/50 33/103/50 35/105/50
f 36/106/51 35/105/51 37/36/51
f 40/108/52 38/107/52 37/36/52
f 42/110/53 40/108/53 39/109/53
f 42/110/54 41/111/54 43/112/54
f 44/113/55 43/112/55 45/114/55
f 48/116/56 46/115/56 45/114/56
f 50/118/57 48/116/57 47/117/57
f 50/118/58 49/119/58 51/120/58
f 52/121/59 51/120/59 53/35/59
f 56/123/60 54/122/60 53/35/60
f 58/125/61 56/123/61 55/124/61
f 58/125/62 57/126/62 59/127/62
f 60/128/63 59/127/63 61/129/63
f 64/131/64 62/130/64 61/129/64
f 1/73/65 64/131/65 63/132/65
f 67/58/66 68/194/66 65/134/66
f 70/136/67 66/135/67 65/134/67
f 70/136/68 69/137/68 71/138/68
f 72/139/69 71/138/69 73/140/69
f 76/142/70 74/141/70 73/140/70
f 78/144/71 76/142/71 75/143/71
f 78/144/72 77/145/72 79/146/72
f 80/147/73 79/146/73 81/148/73
f 84/150/74 82/149/74 81/148/74
f 86/152/75 84/150/75 83/151/75
f 86/152/76 85/153/76 87/154/76
f 88/155/77 87/154/77 89/156/77
f 92/158/78 90/157/78 89/156/78
f 94/160/79 92/158/79 91/159/79
f 94/160/80 93/161/80 95/162/80
f 96/163/81 95/162/81 97/164/81
f 100/165/82 98/56/82 97/164/82
f 102/167/83 100/165/83 99/166/83
f 102/167/84 101/168/84 103/169/84
f 104/170/85 103/169/85 105/171/85
f 108/173/86 106/172/86 105/171/86
f 110/175/87 108/173/87 107/174/87
f 110/175/88 109/176/88 111/177/88
f 112/178/89 111/177/89 113/179/89
f 116/180/90 114/57/90 113/179/90
f 118/182/91 116/180/91 115/181/91
f 118/182/92 117/183/92 119/184/92
f 120/185/93 119/184/93 121/186/93
f 124/188/94 122/187/94 121/186/94
f 126/190/95 124/188/95 123/189/95
f 126/190/96 125/191/96 127/192/96
f 128/193/97 127/192/97 68/194/97
f 4/64/98 65/63/98 68/195/98
