# Blender v2.90.1 OBJ File: ''
# www.blender.org
mtllib miku_body.mtl
o miku_01
v 0.176443 0.000000 0.000000
v -0.176443 0.000000 0.000000
v 0.273071 0.156006 0.106948
v -0.000001 0.226826 0.278387
v 0.000000 0.052707 0.120581
v 0.000000 0.153446 -0.428346
v 0.380907 0.518356 0.064178
v -0.000001 0.569512 0.259281
v -0.000001 0.276946 0.237000
v -0.273071 0.156005 0.106947
v -0.380909 0.518355 0.064177
v 0.230959 -0.475200 -0.000328
v 0.094123 -0.665658 -0.000459
v 0.000001 -0.475097 -0.149070
v 0.000000 -0.475303 0.148414
v 0.000001 -0.475097 -0.149070
v -0.094121 -0.665658 -0.000460
v -0.230957 -0.475200 -0.000328
v 0.000000 -0.475303 0.148414
v 0.185100 0.066876 -0.039854
v 0.253609 0.146132 -0.479895
v 0.394668 0.518354 0.068035
v -0.185100 0.066875 -0.039854
v -0.394670 0.518353 0.068034
v -0.253607 0.146131 -0.479896
v -0.219224 0.691476 -0.400620
v -0.317068 0.728994 0.007959
v -0.000001 0.853223 -0.033725
v 0.219224 0.691477 -0.400619
v 0.317066 0.728995 0.007960
v -0.159475 0.518208 0.277484
v -0.000001 0.739631 0.245238
v 0.159473 0.518209 0.277485
v 0.000000 -0.242074 0.222596
v 0.211759 -0.241920 -0.000167
v 0.176443 0.000000 0.000000
v 0.000000 -0.000108 0.156816
v 0.000000 0.080676 0.000056
v 0.000000 0.000108 -0.156597
v 0.000001 -0.241836 -0.122328
v 0.000000 -0.242062 0.205350
v 0.000000 -0.475382 0.264056
v 0.327241 -0.475199 -0.000327
v 0.190583 -0.241920 -0.000167
v 0.000001 -0.475017 -0.264712
v 0.000000 -0.241848 -0.105082
v -0.176443 0.000000 0.000000
v -0.211759 -0.241920 -0.000167
v -0.327239 -0.475200 -0.000329
v -0.190583 -0.241920 -0.000167
v 0.288526 0.802206 -0.032398
v 0.417810 0.447003 -0.032643
v 0.530483 0.488051 -0.088526
v -0.127526 -0.348564 0.261856
v 0.127526 -0.348564 0.261857
v 0.000000 -0.000125 0.180720
v -0.084167 0.040677 0.104111
v 0.084167 0.040677 0.104111
v 0.581492 -0.556578 -0.413780
v 0.999840 -0.268594 -0.471064
v 0.399599 0.710946 -0.190042
v -0.401201 0.843254 -0.088283
v -0.288528 0.802205 -0.032399
v -0.259390 0.590727 -0.403085
v 0.296935 0.073712 0.088914
v -0.296935 0.073711 0.088913
v 0.183599 0.276956 0.247603
v 0.340421 -0.397439 -0.000274
v 0.000001 -0.397260 -0.261314
v -0.340419 -0.397440 -0.000275
v 0.259390 0.590728 -0.403084
v 0.401199 0.843255 -0.088281
v 0.000000 -0.417062 0.275462
v -0.530485 0.488050 -0.088528
v -0.417812 0.447002 -0.032644
v -0.581490 -0.556579 -0.413782
v -0.999838 -0.268596 -0.471067
v -0.399601 0.710945 -0.190043
v 0.124698 -0.397570 0.188710
v -0.124698 -0.397571 0.188709
vt 0.212870 0.710990
vt 0.021600 0.758540
vt 0.021600 0.641750
vt 0.333230 0.855050
vt 0.329200 0.819200
vt 0.490800 0.854030
vt 0.288400 0.953870
vt 0.021600 0.988250
vt 0.021600 0.792120
vt 0.345900 0.980800
vt 0.212870 0.710990
vt 0.333230 0.855050
vt 0.288400 0.953870
vt 0.345900 0.980800
vt 0.986640 0.981650
vt 0.831120 0.818350
vt 0.753360 0.981650
vt 0.753360 0.981650
vt 0.753360 0.981650
vt 0.831120 0.818350
vt 0.986640 0.981650
vt 0.753360 0.981650
vt 0.371020 0.440900
vt 0.546540 0.475070
vt 0.328110 0.636310
vt 0.371020 0.440900
vt 0.328110 0.636310
vt 0.546540 0.475070
vt 0.515070 0.711090
vt 0.352130 0.727450
vt 0.368790 0.781200
vt 0.515070 0.711090
vt 0.352130 0.727450
vt 0.240270 0.636310
vt 0.257500 0.732120
vt 0.240270 0.636310
vt 0.018000 0.147240
vt 0.196080 0.147240
vt 0.166380 0.354000
vt 0.018000 0.354000
vt 0.018000 0.420000
vt 0.536380 0.354000
vt 0.388000 0.354000
vt 0.388000 0.420000
vt 0.566080 0.147240
vt 0.388000 0.147240
vt 0.538800 0.975700
vt 0.538800 0.821700
vt 0.758800 0.821700
vt 0.658620 0.975700
vt 0.538800 0.821700
vt 0.538800 0.975700
vt 0.658620 0.975700
vt 0.974800 0.381850
vt 0.891310 0.305950
vt 0.891310 0.457750
vt 0.166380 0.354000
vt 0.196080 0.147240
vt 0.536380 0.354000
vt 0.566080 0.147240
vt 0.758800 0.821700
vt 0.658620 0.975700
vt 0.658620 0.975700
vt 0.974800 0.381850
vt 0.871600 0.260000
vt 0.871600 0.020000
vt 0.948400 0.020000
vt 0.857440 0.528100
vt 0.990560 0.528100
vt 0.924000 0.784610
vt 0.880070 0.824540
vt 0.967930 0.824540
vt 0.242090 0.161200
vt 0.353600 0.233880
vt 0.193600 0.481200
vt 0.948400 0.260000
vt 0.871600 0.260000
vt 0.910000 0.140000
vt 0.311050 0.443900
vt 0.311050 0.443900
vt 0.256430 0.531900
vt 0.358000 0.020000
vt 0.728000 0.020000
vt 0.388000 0.020000
vt 0.728000 0.020000
vt 0.910000 0.140000
vt 0.948400 0.260000
vt 0.924000 0.491740
vt 0.948400 0.020000
vt 0.871600 0.020000
vt 0.242090 0.161200
vt 0.353600 0.233880
vt 0.193600 0.481200
vt 0.018000 0.020000
vt 0.358000 0.020000
vt 0.018000 0.020000
vn 0.7505 -0.4181 0.5119
vn -0.0000 -0.0813 0.9967
vn 0.0000 -0.9453 0.3263
vn 0.0000 -0.8981 -0.4398
vn 0.7710 -0.1751 0.6122
vn -0.0000 -0.0759 0.9971
vn -0.0000 0.1799 0.9837
vn -0.7505 -0.4181 0.5119
vn -0.7710 -0.1751 0.6122
vn 0.8121 -0.5835 -0.0004
vn 0.0960 -0.9954 -0.0007
vn -0.3293 -0.6764 -0.6588
vn -0.3293 -0.6773 0.6579
vn 0.3293 -0.6764 -0.6588
vn -0.0960 -0.9954 -0.0007
vn -0.8121 -0.5835 -0.0004
vn 0.3293 -0.6773 0.6579
vn 0.2624 -0.8359 0.4821
vn 0.5758 -0.3198 -0.7525
vn 0.9054 0.0041 0.4246
vn -0.4356 -0.7986 0.4153
vn -0.8147 -0.0432 0.5783
vn -0.5667 -0.6617 -0.4909
vn -0.4916 0.5432 -0.6806
vn -0.6463 0.6981 0.3081
vn 0.0000 1.0000 -0.0071
vn 0.5795 0.6033 -0.5478
vn 0.6463 0.6981 0.3081
vn -0.3958 0.1787 0.9008
vn 0.0000 0.6818 0.7316
vn 0.3958 0.1787 0.9008
vn 0.6577 -0.0407 0.7522
vn 0.7560 0.4317 -0.4921
vn 0.7908 0.5814 0.1913
vn -0.0000 0.6623 0.7493
vn -0.0000 1.0000 0.0004
vn -0.0000 0.3666 -0.9304
vn -0.0000 0.3027 -0.9531
vn -0.0000 0.3890 0.9212
vn 0.0000 -0.7272 0.6865
vn 0.9433 -0.0340 0.3301
vn 0.8606 0.5042 -0.0713
vn 0.0000 -0.0875 -0.9962
vn -0.0000 0.5649 -0.8252
vn 0.7560 0.4316 -0.4921
vn 0.0001 -0.0874 -0.9962
vn -0.7908 0.5814 0.1913
vn -0.5563 0.2489 -0.7928
vn -0.9433 -0.0340 0.3301
vn -0.8606 0.5042 -0.0713
vn 0.4835 -0.7761 0.4047
vn 0.1580 0.6165 0.7714
vn -0.1283 0.9049 0.4059
vn -0.0001 0.9775 -0.2108
vn 0.0001 0.9775 -0.2108
vn 0.0000 0.6092 0.7930
vn 0.0000 0.8826 0.4701
vn 0.2268 -0.1376 0.9642
vn 0.5176 0.3716 -0.7707
vn 0.4904 0.1874 -0.8511
vn 0.3420 0.9397 0.0007
vn 0.6610 -0.1104 0.7422
vn -0.6610 -0.1104 0.7422
vn -0.0000 -0.1229 0.9924
vn 0.4676 0.5323 -0.7057
vn -0.0000 0.6064 -0.7952
vn 0.3223 -0.1878 -0.9278
vn 0.3971 0.1439 0.9064
vn -0.1283 0.9048 0.4059
vn 0.0822 -0.8750 -0.4771
vn 0.4835 -0.7761 0.4048
vn 0.0000 -0.1948 -0.9808
vn 0.5148 0.3443 -0.7851
vn 0.4997 0.7237 -0.4760
vn 0.3420 0.9397 0.0006
vn 0.5177 0.3716 -0.7707
vn 0.2268 0.1376 -0.9642
vn 0.6577 -0.0408 0.7522
vn -0.6190 -0.3424 -0.7068
vn -0.5563 0.2489 -0.7929
vn 0.6190 -0.3424 -0.7068
usemtl unnamed
s 1
f 3/1/1 4/2/2 5/3/3
f 3/4/1 5/5/3 6/6/4
f 7/7/5 8/8/6 9/9/7
f 3/1/1 7/7/5 9/9/7
f 4/2/2 3/1/1 9/9/7
f 6/6/4 7/10/5 3/4/1
f 5/3/3 4/2/2 10/11/8
f 6/6/4 5/5/3 10/12/8
f 9/9/7 8/8/6 11/13/9
f 9/9/7 11/13/9 10/11/8
f 9/9/7 10/11/8 4/2/2
f 10/12/8 11/14/9 6/6/4
f 12/15/10 13/16/11 14/17/12
f 14/17/12 13/16/11 15/18/13
f 15/18/13 13/16/11 12/15/10
f 16/19/14 17/20/15 18/21/16
f 19/22/17 17/20/15 16/19/14
f 18/21/16 17/20/15 19/22/17
f 20/23/18 21/24/19 22/25/20
f 23/26/21 24/27/22 25/28/23
f 26/29/24 25/28/23 24/27/22
f 27/30/25 28/31/26 26/29/24
f 22/25/20 21/24/19 29/32/27
f 29/32/27 28/31/26 30/33/28
f 31/34/29 32/35/30 27/30/25
f 30/33/28 32/35/30 33/36/31
f 33/36/31 32/35/30 31/34/29
f 28/31/26 27/30/25 32/35/30
f 30/33/28 28/31/26 32/35/30
f 21/24/19 25/28/23 26/29/24
f 26/29/24 28/31/26 29/32/27
f 25/28/23 21/24/19 20/23/18
f 20/23/18 22/25/20 24/27/22
f 30/33/28 22/25/20 29/32/27
f 27/30/25 26/29/24 24/27/22
f 22/25/20 30/33/28 33/36/31
f 24/27/22 31/34/29 27/30/25
f 29/32/27 21/24/19 26/29/24
f 23/26/21 25/28/23 20/23/18
f 23/26/21 20/23/18 24/27/22
f 34/37/32 35/38/33 36/39/34
f 37/40/35 36/39/34 38/41/36
f 37/40/35 34/37/32 36/39/34
f 36/42/34 39/43/37 38/44/36
f 35/45/33 40/46/38 39/43/37
f 36/42/34 35/45/33 39/43/37
f 41/47/39 42/48/40 43/49/41
f 44/50/42 41/47/39 43/49/41
f 44/50/42 43/49/41 45/51/43
f 46/52/44 35/53/45 45/51/46
f 43/54/41 42/55/40 45/56/43
f 47/57/47 48/58/48 34/37/32
f 38/41/36 47/57/47 37/40/35
f 47/57/47 34/37/32 37/40/35
f 38/44/36 39/43/37 47/59/47
f 39/43/37 40/46/38 48/60/48
f 39/43/37 48/60/48 47/59/47
f 49/61/49 42/48/40 41/47/39
f 49/61/49 41/47/39 50/62/50
f 45/51/43 49/61/49 50/62/50
f 45/51/46 48/63/48 46/52/44
f 45/56/43 42/55/40 49/64/49
f 51/65/51 52/66/52 53/67/53
f 54/68/54 55/69/55 56/70/56
f 57/71/57 56/70/56 58/72/57
f 59/73/58 60/74/58 61/75/58
f 62/76/59 63/77/60 64/78/61
f 33/36/31 65/79/62 22/25/20
f 24/27/22 66/80/63 31/34/29
f 31/34/29 67/81/64 33/36/31
f 68/82/65 35/38/33 34/37/32
f 35/45/33 68/83/65 69/84/66
f 40/46/38 35/45/33 69/84/66
f 69/84/66 70/85/67 48/60/48
f 69/84/66 48/60/48 40/46/38
f 71/86/68 52/66/52 53/67/69
f 72/87/70 51/65/71 71/86/68
f 53/67/69 51/65/71 72/87/70
f 55/69/55 73/88/72 54/68/54
f 74/89/73 75/90/74 64/78/75
f 63/77/60 75/90/74 74/89/73
f 62/76/76 63/77/60 74/89/73
f 76/91/77 77/92/77 78/93/77
f 34/37/78 68/82/65 79/94/79
f 70/95/67 48/58/80 34/37/32
f 80/96/81 70/95/67 34/37/32
