# Blender v3.0.0 OBJ File: 'musou.blend'
# www.blender.org
mtllib musou.mtl
o 立方体
v -0.374015 2.156484 0.446746
v -0.374015 0.247830 0.446746
v -0.374015 2.156484 2.355400
v -0.374015 0.247830 2.355400
v -2.282668 2.156484 0.446746
v -2.282668 0.247830 0.446746
v -2.282668 2.156484 2.355400
v -2.282668 0.247830 2.355400
v 0.374015 2.156484 0.446746
v 0.374015 0.247830 0.446746
v 0.374015 2.156484 2.355400
v 0.374015 0.247830 2.355400
v 2.282668 2.156484 0.446746
v 2.282668 0.247830 0.446746
v 2.282668 2.156484 2.355400
v 2.282668 0.247830 2.355400
v -0.374015 2.156484 -0.446746
v -0.374015 0.247830 -0.446746
v -0.374015 2.156484 -2.355400
v -0.374015 0.247830 -2.355400
v -2.282668 2.156484 -0.446746
v -2.282668 0.247830 -0.446746
v -2.282668 2.156484 -2.355400
v -2.282668 0.247830 -2.355400
v 0.374015 2.156484 -0.446746
v 0.374015 0.247830 -0.446746
v 0.374015 2.156484 -2.355400
v 0.374015 0.247830 -2.355400
v 2.282668 2.156484 -0.446746
v 2.282668 0.247830 -0.446746
v 2.282668 2.156484 -2.355400
v 2.282668 0.247830 -2.355400
v -0.374015 -2.156484 0.446746
v -0.374015 -0.247830 0.446746
v -0.374015 -2.156484 2.355400
v -0.374015 -0.247830 2.355400
v -2.282668 -2.156484 0.446746
v -2.282668 -0.247830 0.446746
v -2.282668 -2.156484 2.355400
v -2.282668 -0.247830 2.355400
v 0.374015 -2.156484 0.446746
v 0.374015 -0.247830 0.446746
v 0.374015 -2.156484 2.355400
v 0.374015 -0.247830 2.355400
v 2.282668 -2.156484 0.446746
v 2.282668 -0.247830 0.446746
v 2.282668 -2.156484 2.355400
v 2.282668 -0.247830 2.355400
v -0.374015 -2.156484 -0.446746
v -0.374015 -0.247830 -0.446746
v -0.374015 -2.156484 -2.355400
v -0.374015 -0.247830 -2.355400
v -2.282668 -2.156484 -0.446746
v -2.282668 -0.247830 -0.446746
v -2.282668 -2.156484 -2.355400
v -2.282668 -0.247830 -2.355400
v 0.374015 -2.156484 -0.446746
v 0.374015 -0.247830 -0.446746
v 0.374015 -2.156484 -2.355400
v 0.374015 -0.247830 -2.355400
v 2.282668 -2.156484 -0.446746
v 2.282668 -0.247830 -0.446746
v 2.282668 -2.156484 -2.355400
v 2.282668 -0.247830 -2.355400
v -2.328341 0.202157 2.401073
v -2.328341 2.202157 2.401073
v -2.328341 0.202157 0.401073
v -2.328341 2.202157 0.401073
v -0.328341 0.202157 2.401073
v -0.328341 2.202157 2.401073
v -0.328341 0.202157 0.401073
v -0.328341 2.202157 0.401073
v 2.328341 0.202157 2.401073
v 2.328341 2.202157 2.401073
v 2.328341 0.202157 0.401073
v 2.328341 2.202157 0.401073
v 0.328341 0.202157 2.401073
v 0.328341 2.202157 2.401073
v 0.328341 0.202157 0.401073
v 0.328341 2.202157 0.401073
v -2.328341 0.202157 -2.401073
v -2.328341 2.202157 -2.401073
v -2.328341 0.202157 -0.401073
v -2.328341 2.202157 -0.401073
v -0.328341 0.202157 -2.401073
v -0.328341 2.202157 -2.401073
v -0.328341 0.202157 -0.401073
v -0.328341 2.202157 -0.401073
v 2.328341 0.202157 -2.401073
v 2.328341 2.202157 -2.401073
v 2.328341 0.202157 -0.401073
v 2.328341 2.202157 -0.401073
v 0.328341 0.202157 -2.401073
v 0.328341 2.202157 -2.401073
v 0.328341 0.202157 -0.401073
v 0.328341 2.202157 -0.401073
v -2.328341 -0.202157 2.401073
v -2.328341 -2.202157 2.401073
v -2.328341 -0.202157 0.401073
v -2.328341 -2.202157 0.401073
v -0.328341 -0.202157 2.401073
v -0.328341 -2.202157 2.401073
v -0.328341 -0.202157 0.401073
v -0.328341 -2.202157 0.401073
v 2.328341 -0.202157 2.401073
v 2.328341 -2.202157 2.401073
v 2.328341 -0.202157 0.401073
v 2.328341 -2.202157 0.401073
v 0.328341 -0.202157 2.401073
v 0.328341 -2.202157 2.401073
v 0.328341 -0.202157 0.401073
v 0.328341 -2.202157 0.401073
v -2.328341 -0.202157 -2.401073
v -2.328341 -2.202157 -2.401073
v -2.328341 -0.202157 -0.401073
v -2.328341 -2.202157 -0.401073
v -0.328341 -0.202157 -2.401073
v -0.328341 -2.202157 -2.401073
v -0.328341 -0.202157 -0.401073
v -0.328341 -2.202157 -0.401073
v 2.328341 -0.202157 -2.401073
v 2.328341 -2.202157 -2.401073
v 2.328341 -0.202157 -0.401073
v 2.328341 -2.202157 -0.401073
v 0.328341 -0.202157 -2.401073
v 0.328341 -2.202157 -2.401073
v 0.328341 -0.202157 -0.401073
v 0.328341 -2.202157 -0.401073
vt 0.625000 0.000000
vt 0.375000 0.250000
vt 0.375000 0.000000
vt 0.625000 0.250000
vt 0.375000 0.500000
vt 0.625000 0.500000
vt 0.375000 0.750000
vt 0.625000 0.750000
vt 0.375000 1.000000
vt 0.125000 0.750000
vt 0.125000 0.500000
vt 0.875000 0.500000
vt 0.375000 0.250000
vt 0.625000 0.000000
vt 0.375000 0.000000
vt 0.375000 0.500000
vt 0.625000 0.250000
vt 0.375000 0.750000
vt 0.625000 0.500000
vt 0.375000 1.000000
vt 0.625000 0.750000
vt 0.125000 0.750000
vt 0.125000 0.500000
vt 0.875000 0.500000
vt 0.375000 0.250000
vt 0.625000 0.000000
vt 0.375000 0.000000
vt 0.375000 0.500000
vt 0.625000 0.250000
vt 0.375000 0.750000
vt 0.625000 0.500000
vt 0.375000 1.000000
vt 0.625000 0.750000
vt 0.125000 0.750000
vt 0.125000 0.500000
vt 0.875000 0.500000
vt 0.625000 0.000000
vt 0.375000 0.250000
vt 0.375000 0.000000
vt 0.625000 0.250000
vt 0.375000 0.500000
vt 0.625000 0.500000
vt 0.375000 0.750000
vt 0.625000 0.750000
vt 0.375000 1.000000
vt 0.125000 0.750000
vt 0.125000 0.500000
vt 0.875000 0.500000
vt 0.375000 0.250000
vt 0.625000 0.000000
vt 0.375000 0.000000
vt 0.375000 0.500000
vt 0.625000 0.250000
vt 0.375000 0.750000
vt 0.625000 0.500000
vt 0.375000 1.000000
vt 0.625000 0.750000
vt 0.125000 0.750000
vt 0.125000 0.500000
vt 0.875000 0.500000
vt 0.625000 0.000000
vt 0.375000 0.250000
vt 0.375000 0.000000
vt 0.625000 0.250000
vt 0.375000 0.500000
vt 0.625000 0.500000
vt 0.375000 0.750000
vt 0.625000 0.750000
vt 0.375000 1.000000
vt 0.125000 0.750000
vt 0.125000 0.500000
vt 0.875000 0.500000
vt 0.625000 0.000000
vt 0.375000 0.250000
vt 0.375000 0.000000
vt 0.625000 0.250000
vt 0.375000 0.500000
vt 0.625000 0.500000
vt 0.375000 0.750000
vt 0.625000 0.750000
vt 0.375000 1.000000
vt 0.125000 0.750000
vt 0.125000 0.500000
vt 0.875000 0.500000
vt 0.375000 0.250000
vt 0.625000 0.000000
vt 0.375000 0.000000
vt 0.375000 0.500000
vt 0.625000 0.250000
vt 0.375000 0.750000
vt 0.625000 0.500000
vt 0.375000 1.000000
vt 0.625000 0.750000
vt 0.125000 0.750000
vt 0.125000 0.500000
vt 0.875000 0.500000
vt 0.375000 0.250000
vt 0.625000 0.000000
vt 0.375000 0.000000
vt 0.375000 0.500000
vt 0.625000 0.250000
vt 0.375000 0.750000
vt 0.625000 0.500000
vt 0.375000 1.000000
vt 0.625000 0.750000
vt 0.125000 0.750000
vt 0.125000 0.500000
vt 0.875000 0.500000
vt 0.625000 0.000000
vt 0.375000 0.250000
vt 0.375000 0.000000
vt 0.625000 0.250000
vt 0.375000 0.500000
vt 0.625000 0.500000
vt 0.375000 0.750000
vt 0.625000 0.750000
vt 0.375000 1.000000
vt 0.125000 0.750000
vt 0.125000 0.500000
vt 0.875000 0.500000
vt 0.625000 0.000000
vt 0.375000 0.250000
vt 0.375000 0.000000
vt 0.625000 0.250000
vt 0.375000 0.500000
vt 0.625000 0.500000
vt 0.375000 0.750000
vt 0.625000 0.750000
vt 0.375000 1.000000
vt 0.125000 0.750000
vt 0.125000 0.500000
vt 0.875000 0.500000
vt 0.375000 0.250000
vt 0.625000 0.000000
vt 0.375000 0.000000
vt 0.375000 0.500000
vt 0.625000 0.250000
vt 0.375000 0.750000
vt 0.625000 0.500000
vt 0.375000 1.000000
vt 0.625000 0.750000
vt 0.125000 0.750000
vt 0.125000 0.500000
vt 0.875000 0.500000
vt 0.625000 0.000000
vt 0.375000 0.250000
vt 0.375000 0.000000
vt 0.625000 0.250000
vt 0.375000 0.500000
vt 0.625000 0.500000
vt 0.375000 0.750000
vt 0.625000 0.750000
vt 0.375000 1.000000
vt 0.125000 0.750000
vt 0.125000 0.500000
vt 0.875000 0.500000
vt 0.375000 0.250000
vt 0.625000 0.000000
vt 0.375000 0.000000
vt 0.375000 0.500000
vt 0.625000 0.250000
vt 0.375000 0.750000
vt 0.625000 0.500000
vt 0.375000 1.000000
vt 0.625000 0.750000
vt 0.125000 0.750000
vt 0.125000 0.500000
vt 0.875000 0.500000
vt 0.375000 0.250000
vt 0.625000 0.000000
vt 0.375000 0.000000
vt 0.375000 0.500000
vt 0.625000 0.250000
vt 0.375000 0.750000
vt 0.625000 0.500000
vt 0.375000 1.000000
vt 0.625000 0.750000
vt 0.125000 0.750000
vt 0.125000 0.500000
vt 0.875000 0.500000
vt 0.625000 0.000000
vt 0.375000 0.250000
vt 0.375000 0.000000
vt 0.625000 0.250000
vt 0.375000 0.500000
vt 0.625000 0.500000
vt 0.375000 0.750000
vt 0.625000 0.750000
vt 0.375000 1.000000
vt 0.125000 0.750000
vt 0.125000 0.500000
vt 0.875000 0.500000
vt 0.625000 1.000000
vt 0.875000 0.750000
vt 0.625000 1.000000
vt 0.875000 0.750000
vt 0.625000 1.000000
vt 0.875000 0.750000
vt 0.625000 1.000000
vt 0.875000 0.750000
vt 0.625000 1.000000
vt 0.875000 0.750000
vt 0.625000 1.000000
vt 0.875000 0.750000
vt 0.625000 1.000000
vt 0.875000 0.750000
vt 0.625000 1.000000
vt 0.875000 0.750000
vt 0.625000 1.000000
vt 0.875000 0.750000
vt 0.625000 1.000000
vt 0.875000 0.750000
vt 0.625000 1.000000
vt 0.875000 0.750000
vt 0.625000 1.000000
vt 0.875000 0.750000
vt 0.625000 1.000000
vt 0.875000 0.750000
vt 0.625000 1.000000
vt 0.875000 0.750000
vt 0.625000 1.000000
vt 0.875000 0.750000
vt 0.625000 1.000000
vt 0.875000 0.750000
vn -1.0000 0.0000 0.0000
vn 0.0000 0.0000 -1.0000
vn 1.0000 0.0000 0.0000
vn 0.0000 0.0000 1.0000
vn 0.0000 -1.0000 0.0000
vn 0.0000 1.0000 0.0000
usemtl マテリアル.004
s off
f 2/1/1 3/2/1 1/3/1
f 4/4/2 7/5/2 3/2/2
f 8/6/3 5/7/3 7/5/3
f 6/8/4 1/9/4 5/7/4
f 7/5/5 1/10/5 3/11/5
f 4/12/6 6/8/6 8/6/6
f 11/13/3 10/14/3 9/15/3
f 15/16/2 12/17/2 11/13/2
f 13/18/1 16/19/1 15/16/1
f 9/20/4 14/21/4 13/18/4
f 9/22/5 15/16/5 11/23/5
f 14/21/6 12/24/6 16/19/6
f 19/25/1 18/26/1 17/27/1
f 23/28/4 20/29/4 19/25/4
f 21/30/3 24/31/3 23/28/3
f 17/32/2 22/33/2 21/30/2
f 17/34/5 23/28/5 19/35/5
f 22/33/6 20/36/6 24/31/6
f 26/37/3 27/38/3 25/39/3
f 28/40/4 31/41/4 27/38/4
f 32/42/1 29/43/1 31/41/1
f 30/44/2 25/45/2 29/43/2
f 31/41/5 25/46/5 27/47/5
f 28/48/6 30/44/6 32/42/6
f 35/49/1 34/50/1 33/51/1
f 39/52/2 36/53/2 35/49/2
f 37/54/3 40/55/3 39/52/3
f 33/56/4 38/57/4 37/54/4
f 33/58/6 39/52/6 35/59/6
f 38/57/5 36/60/5 40/55/5
f 42/61/3 43/62/3 41/63/3
f 44/64/2 47/65/2 43/62/2
f 48/66/1 45/67/1 47/65/1
f 46/68/4 41/69/4 45/67/4
f 47/65/6 41/70/6 43/71/6
f 44/72/5 46/68/5 48/66/5
f 50/73/1 51/74/1 49/75/1
f 52/76/4 55/77/4 51/74/4
f 56/78/3 53/79/3 55/77/3
f 54/80/2 49/81/2 53/79/2
f 55/77/6 49/82/6 51/83/6
f 52/84/5 54/80/5 56/78/5
f 59/85/3 58/86/3 57/87/3
f 63/88/4 60/89/4 59/85/4
f 61/90/1 64/91/1 63/88/1
f 57/92/2 62/93/2 61/90/2
f 57/94/6 63/88/6 59/95/6
f 62/93/5 60/96/5 64/91/5
f 67/97/3 66/98/3 65/99/3
f 71/100/4 68/101/4 67/97/4
f 69/102/1 72/103/1 71/100/1
f 65/104/2 70/105/2 69/102/2
f 65/106/6 71/100/6 67/107/6
f 70/105/5 68/108/5 72/103/5
f 74/109/1 75/110/1 73/111/1
f 76/112/4 79/113/4 75/110/4
f 80/114/3 77/115/3 79/113/3
f 78/116/2 73/117/2 77/115/2
f 79/113/6 73/118/6 75/119/6
f 76/120/5 78/116/5 80/114/5
f 82/121/3 83/122/3 81/123/3
f 84/124/2 87/125/2 83/122/2
f 88/126/1 85/127/1 87/125/1
f 86/128/4 81/129/4 85/127/4
f 87/125/6 81/130/6 83/131/6
f 84/132/5 86/128/5 88/126/5
f 91/133/1 90/134/1 89/135/1
f 95/136/2 92/137/2 91/133/2
f 93/138/3 96/139/3 95/136/3
f 89/140/4 94/141/4 93/138/4
f 89/142/6 95/136/6 91/143/6
f 94/141/5 92/144/5 96/139/5
f 98/145/3 99/146/3 97/147/3
f 100/148/4 103/149/4 99/146/4
f 104/150/1 101/151/1 103/149/1
f 102/152/2 97/153/2 101/151/2
f 103/149/5 97/154/5 99/155/5
f 100/156/6 102/152/6 104/150/6
f 107/157/1 106/158/1 105/159/1
f 111/160/4 108/161/4 107/157/4
f 109/162/3 112/163/3 111/160/3
f 105/164/2 110/165/2 109/162/2
f 105/166/5 111/160/5 107/167/5
f 110/165/6 108/168/6 112/163/6
f 115/169/3 114/170/3 113/171/3
f 119/172/2 116/173/2 115/169/2
f 117/174/1 120/175/1 119/172/1
f 113/176/4 118/177/4 117/174/4
f 113/178/5 119/172/5 115/179/5
f 118/177/6 116/180/6 120/175/6
f 122/181/1 123/182/1 121/183/1
f 124/184/2 127/185/2 123/182/2
f 128/186/3 125/187/3 127/185/3
f 126/188/4 121/189/4 125/187/4
f 127/185/5 121/190/5 123/191/5
f 124/192/6 126/188/6 128/186/6
f 2/1/1 4/4/1 3/2/1
f 4/4/2 8/6/2 7/5/2
f 8/6/3 6/8/3 5/7/3
f 6/8/4 2/193/4 1/9/4
f 7/5/5 5/7/5 1/10/5
f 4/12/6 2/194/6 6/8/6
f 11/13/3 12/17/3 10/14/3
f 15/16/2 16/19/2 12/17/2
f 13/18/1 14/21/1 16/19/1
f 9/20/4 10/195/4 14/21/4
f 9/22/5 13/18/5 15/16/5
f 14/21/6 10/196/6 12/24/6
f 19/25/1 20/29/1 18/26/1
f 23/28/4 24/31/4 20/29/4
f 21/30/3 22/33/3 24/31/3
f 17/32/2 18/197/2 22/33/2
f 17/34/5 21/30/5 23/28/5
f 22/33/6 18/198/6 20/36/6
f 26/37/3 28/40/3 27/38/3
f 28/40/4 32/42/4 31/41/4
f 32/42/1 30/44/1 29/43/1
f 30/44/2 26/199/2 25/45/2
f 31/41/5 29/43/5 25/46/5
f 28/48/6 26/200/6 30/44/6
f 35/49/1 36/53/1 34/50/1
f 39/52/2 40/55/2 36/53/2
f 37/54/3 38/57/3 40/55/3
f 33/56/4 34/201/4 38/57/4
f 33/58/6 37/54/6 39/52/6
f 38/57/5 34/202/5 36/60/5
f 42/61/3 44/64/3 43/62/3
f 44/64/2 48/66/2 47/65/2
f 48/66/1 46/68/1 45/67/1
f 46/68/4 42/203/4 41/69/4
f 47/65/6 45/67/6 41/70/6
f 44/72/5 42/204/5 46/68/5
f 50/73/1 52/76/1 51/74/1
f 52/76/4 56/78/4 55/77/4
f 56/78/3 54/80/3 53/79/3
f 54/80/2 50/205/2 49/81/2
f 55/77/6 53/79/6 49/82/6
f 52/84/5 50/206/5 54/80/5
f 59/85/3 60/89/3 58/86/3
f 63/88/4 64/91/4 60/89/4
f 61/90/1 62/93/1 64/91/1
f 57/92/2 58/207/2 62/93/2
f 57/94/6 61/90/6 63/88/6
f 62/93/5 58/208/5 60/96/5
f 67/97/3 68/101/3 66/98/3
f 71/100/4 72/103/4 68/101/4
f 69/102/1 70/105/1 72/103/1
f 65/104/2 66/209/2 70/105/2
f 65/106/6 69/102/6 71/100/6
f 70/105/5 66/210/5 68/108/5
f 74/109/1 76/112/1 75/110/1
f 76/112/4 80/114/4 79/113/4
f 80/114/3 78/116/3 77/115/3
f 78/116/2 74/211/2 73/117/2
f 79/113/6 77/115/6 73/118/6
f 76/120/5 74/212/5 78/116/5
f 82/121/3 84/124/3 83/122/3
f 84/124/2 88/126/2 87/125/2
f 88/126/1 86/128/1 85/127/1
f 86/128/4 82/213/4 81/129/4
f 87/125/6 85/127/6 81/130/6
f 84/132/5 82/214/5 86/128/5
f 91/133/1 92/137/1 90/134/1
f 95/136/2 96/139/2 92/137/2
f 93/138/3 94/141/3 96/139/3
f 89/140/4 90/215/4 94/141/4
f 89/142/6 93/138/6 95/136/6
f 94/141/5 90/216/5 92/144/5
f 98/145/3 100/148/3 99/146/3
f 100/148/4 104/150/4 103/149/4
f 104/150/1 102/152/1 101/151/1
f 102/152/2 98/217/2 97/153/2
f 103/149/5 101/151/5 97/154/5
f 100/156/6 98/218/6 102/152/6
f 107/157/1 108/161/1 106/158/1
f 111/160/4 112/163/4 108/161/4
f 109/162/3 110/165/3 112/163/3
f 105/164/2 106/219/2 110/165/2
f 105/166/5 109/162/5 111/160/5
f 110/165/6 106/220/6 108/168/6
f 115/169/3 116/173/3 114/170/3
f 119/172/2 120/175/2 116/173/2
f 117/174/1 118/177/1 120/175/1
f 113/176/4 114/221/4 118/177/4
f 113/178/5 117/174/5 119/172/5
f 118/177/6 114/222/6 116/180/6
f 122/181/1 124/184/1 123/182/1
f 124/184/2 128/186/2 127/185/2
f 128/186/3 126/188/3 125/187/3
f 126/188/4 122/223/4 121/189/4
f 127/185/5 125/187/5 121/190/5
f 124/192/6 122/224/6 126/188/6
