# Blender v3.0.0 OBJ File: 'game_sozai1.blend'
# www.blender.org
mtllib player.mtl
o Player_立方体.010
v 1.414213 -0.019388 2.074272
v -0.000001 -0.903060 2.074271
v -0.000001 0.864284 2.074271
v -1.414214 -0.019388 2.074271
v -0.000002 -0.019388 6.219719
v 0.573491 -0.019388 -0.420396
v 0.000000 -0.377734 -0.420396
v 0.000000 0.338958 -0.420396
v -0.573491 -0.019388 -0.420397
v 0.926408 -0.693432 -0.068229
v 1.687989 -1.244944 -0.068229
v 1.687989 -0.141920 -0.068229
v 2.449570 -0.693432 -0.068229
v 1.687990 -0.693433 -2.300632
v 1.379153 -0.693432 1.275197
v 1.687988 -0.917081 1.275197
v 1.687988 -0.469783 1.275197
v 1.996824 -0.693432 1.275197
v -2.437158 -0.693432 -0.068231
v -1.675577 -1.244944 -0.068230
v -1.675577 -0.141920 -0.068230
v -0.913996 -0.693432 -0.068230
v -1.675576 -0.693433 -2.300633
v -1.984414 -0.693432 1.275196
v -1.675578 -0.917081 1.275196
v -1.675578 -0.469783 1.275196
v -1.366742 -0.693432 1.275196
vt 0.625000 0.750000
vt 0.625000 0.500000
vt 0.625000 0.500000
vt 0.875000 0.750000
vt 0.750000 0.625000
vt 0.875000 0.500000
vt 0.875000 0.500000
vt 0.625000 0.750000
vt 0.875000 0.750000
vt 0.625000 0.750000
vt 0.625000 0.500000
vt 0.625000 0.500000
vt 0.875000 0.750000
vt 0.750000 0.625000
vt 0.875000 0.500000
vt 0.875000 0.500000
vt 0.625000 0.750000
vt 0.875000 0.750000
vt 0.625000 0.750000
vt 0.625000 0.500000
vt 0.625000 0.500000
vt 0.875000 0.750000
vt 0.750000 0.625000
vt 0.875000 0.500000
vt 0.875000 0.500000
vt 0.625000 0.750000
vt 0.875000 0.750000
vn -0.5217 0.8348 -0.1758
vn 0.5215 0.8345 0.1779
vn -0.5215 -0.8345 0.1779
vn -0.5215 0.8345 0.1779
vn 0.5215 -0.8345 0.1779
vn 0.0000 0.0000 -1.0000
vn 0.5217 -0.8348 -0.1758
vn 0.5217 0.8348 -0.1758
vn -0.5217 -0.8348 -0.1758
vn 0.5754 0.7946 0.1939
vn -0.5751 0.7942 -0.1962
vn 0.5751 -0.7942 -0.1962
vn 0.5751 0.7942 -0.1962
vn -0.5751 -0.7942 -0.1962
vn 0.0000 0.0000 1.0000
vn -0.5754 -0.7946 0.1939
vn -0.5754 0.7946 0.1939
vn 0.5754 -0.7946 0.1939
usemtl マテリアル
s off
f 3/1/1 9/2/1 4/3/1
f 1/4/2 3/1/2 5/5/2
f 4/3/3 2/6/3 5/5/3
f 3/1/4 4/3/4 5/5/4
f 2/6/5 1/4/5 5/5/5
f 7/7/6 8/8/6 6/9/6
f 2/6/7 6/9/7 1/4/7
f 3/1/8 6/9/8 8/8/8
f 2/6/9 9/2/9 7/7/9
f 3/1/1 8/8/1 9/2/1
f 7/7/6 9/2/6 8/8/6
f 2/6/7 7/7/7 6/9/7
f 3/1/8 1/4/8 6/9/8
f 2/6/9 4/3/9 9/2/9
usemtl マテリアル.001
f 12/10/10 18/11/10 13/12/10
f 10/13/11 12/10/11 14/14/11
f 13/12/12 11/15/12 14/14/12
f 12/10/13 13/12/13 14/14/13
f 11/15/14 10/13/14 14/14/14
f 16/16/15 17/17/15 15/18/15
f 11/15/16 15/18/16 10/13/16
f 12/10/17 15/18/17 17/17/17
f 11/15/18 18/11/18 16/16/18
f 21/19/10 27/20/10 22/21/10
f 19/22/11 21/19/11 23/23/11
f 22/21/12 20/24/12 23/23/12
f 21/19/13 22/21/13 23/23/13
f 20/24/14 19/22/14 23/23/14
f 25/25/15 26/26/15 24/27/15
f 20/24/16 24/27/16 19/22/16
f 21/19/17 24/27/17 26/26/17
f 20/24/18 27/20/18 25/25/18
f 12/10/10 17/17/10 18/11/10
f 16/16/15 18/11/15 17/17/15
f 11/15/16 16/16/16 15/18/16
f 12/10/17 10/13/17 15/18/17
f 11/15/18 13/12/18 18/11/18
f 21/19/10 26/26/10 27/20/10
f 25/25/15 27/20/15 26/26/15
f 20/24/16 25/25/16 24/27/16
f 21/19/17 19/22/17 24/27/17
f 20/24/18 22/21/18 27/20/18
