# Blender v3.0.0 OBJ File: 'game_sozai.blend'
# www.blender.org
mtllib stage_sozai1.mtl
o 円
v 0.382683 0.000000 0.923880
v 0.555570 0.000000 0.831470
v 0.707107 0.000000 0.707107
v 0.831469 0.000000 0.555570
v 0.923880 0.000000 0.382684
v 0.980785 0.000000 0.195090
v 0.318829 0.000000 0.769721
v 0.462868 0.000000 0.692731
v 0.589119 0.000000 0.589119
v 0.692731 0.000000 0.462868
v 0.769721 0.000000 0.318829
v 0.817132 0.000000 0.162538
v 0.382683 0.157731 0.923880
v 0.555570 0.157731 0.831470
v 0.707107 0.157731 0.707107
v 0.831469 0.157731 0.555570
v 0.923880 0.157731 0.382684
v 0.980785 0.157731 0.195090
v 0.318829 0.157731 0.769721
v 0.462868 0.157731 0.692731
v 0.589119 0.157731 0.589119
v 0.692731 0.157731 0.462868
v 0.769721 0.157731 0.318829
v 0.817132 0.157731 0.162538
vt 0.000000 0.000000
vt 0.000000 0.000000
vt 0.000000 0.000000
vt 0.000000 0.000000
vt 0.000000 0.000000
vt 0.000000 0.000000
vt 0.000000 0.000000
vt 0.000000 0.000000
vt 0.000000 0.000000
vt 0.000000 0.000000
vt 0.000000 0.000000
vt 0.000000 0.000000
vt 0.000000 0.000000
vt 0.000000 0.000000
vt 0.000000 0.000000
vt 0.000000 0.000000
vt 0.000000 0.000000
vt 0.000000 0.000000
vt 0.000000 0.000000
vt 0.000000 0.000000
vt 0.000000 0.000000
vt 0.000000 0.000000
vt 0.000000 0.000000
vt 0.000000 0.000000
vn 0.0000 -1.0000 0.0000
vn 0.0000 1.0000 -0.0000
vn 0.1951 0.0000 -0.9808
vn -0.9239 0.0000 0.3827
vn 0.6344 0.0000 0.7730
vn 0.7730 0.0000 0.6344
vn 0.8819 0.0000 0.4714
vn 0.9569 0.0000 0.2903
vn -0.4714 0.0000 -0.8819
vn -0.6344 0.0000 -0.7730
vn -0.7730 0.0000 -0.6344
vn -0.8819 0.0000 -0.4714
vn -0.9569 0.0000 -0.2903
vn 0.4714 0.0000 0.8819
usemtl マテリアル
s off
f 4/1/1 11/2/1 5/3/1
f 5/3/1 12/4/1 6/5/1
f 1/6/1 8/7/1 2/8/1
f 2/8/1 9/9/1 3/10/1
f 3/10/1 10/11/1 4/1/1
f 23/12/2 16/13/2 17/14/2
f 24/15/2 17/14/2 18/16/2
f 12/4/3 18/16/3 6/5/3
f 13/17/4 7/18/4 1/6/4
f 20/19/2 13/17/2 14/20/2
f 21/21/2 14/20/2 15/22/2
f 22/23/2 15/22/2 16/13/2
f 15/22/5 2/8/5 3/10/5
f 16/13/6 3/10/6 4/1/6
f 17/14/7 4/1/7 5/3/7
f 18/16/8 5/3/8 6/5/8
f 19/24/9 8/7/9 7/18/9
f 20/19/10 9/9/10 8/7/10
f 21/21/11 10/11/11 9/9/11
f 22/23/12 11/2/12 10/11/12
f 23/12/13 12/4/13 11/2/13
f 14/20/14 1/6/14 2/8/14
f 4/1/1 10/11/1 11/2/1
f 5/3/1 11/2/1 12/4/1
f 1/6/1 7/18/1 8/7/1
f 2/8/1 8/7/1 9/9/1
f 3/10/1 9/9/1 10/11/1
f 23/12/2 22/23/2 16/13/2
f 24/15/2 23/12/2 17/14/2
f 12/4/3 24/15/3 18/16/3
f 13/17/4 19/24/4 7/18/4
f 20/19/2 19/24/2 13/17/2
f 21/21/2 20/19/2 14/20/2
f 22/23/2 21/21/2 15/22/2
f 15/22/5 14/20/5 2/8/5
f 16/13/6 15/22/6 3/10/6
f 17/14/7 16/13/7 4/1/7
f 18/16/8 17/14/8 5/3/8
f 19/24/9 20/19/9 8/7/9
f 20/19/10 21/21/10 9/9/10
f 21/21/11 22/23/11 10/11/11
f 22/23/12 23/12/12 11/2/12
f 23/12/13 24/15/13 12/4/13
f 14/20/14 13/17/14 1/6/14
